HIERARCHY
ROOT Hips
{
    OFFSET 0.000000 91.430000 0.000000
    CHANNELS 6 Xposition Yposition Zposition Yrotation Xrotation Zrotation
    JOINT RightUpLeg
    {
        OFFSET -9.250000 -0.000000 0.000000
        CHANNELS 3 Yrotation Xrotation Zrotation
        JOINT RightLeg
        {
            OFFSET 0.000000 -41.869999 0.000000
            CHANNELS 3 Yrotation Xrotation Zrotation
            JOINT RightFoot
            {
                OFFSET 0.000000 -41.869999 0.000000
                CHANNELS 3 Yrotation Xrotation Zrotation
                End Site
                {
                    OFFSET 0.000000 -7.690000 14.000000
                }
            }
        }
    }
    JOINT LeftUpLeg
    {
        OFFSET 9.250000 -0.000000 0.000000
        CHANNELS 3 Yrotation Xrotation Zrotation
        JOINT LeftLeg
        {
            OFFSET 0.000000 -41.869999 0.000000
            CHANNELS 3 Yrotation Xrotation Zrotation
            JOINT LeftFoot
            {
                OFFSET 0.000000 -41.869999 0.000000
                CHANNELS 3 Yrotation Xrotation Zrotation
                End Site
                {
                    OFFSET 0.000000 -7.690000 14.000000
                }
            }
        }
    }
    JOINT Spine
    {
        OFFSET 0.000000 7.818000 0.000000
        CHANNELS 3 Yrotation Xrotation Zrotation
        JOINT Spine1
        {
            OFFSET 0.000000 17.309999 0.000000
            CHANNELS 3 Yrotation Xrotation Zrotation
            JOINT Spine2
            {
                OFFSET 0.000000 12.285000 0.000000
                CHANNELS 3 Yrotation Xrotation Zrotation
                JOINT Neck
                {
                    OFFSET 0.000000 18.427000 0.000000
                    CHANNELS 3 Yrotation Xrotation Zrotation
                    JOINT Neck1
                    {
                        OFFSET 0.000000 4.735000 0.000000
                        CHANNELS 3 Yrotation Xrotation Zrotation
                        JOINT Head
                        {
                            OFFSET 0.000000 4.735000 0.000000
                            CHANNELS 3 Yrotation Xrotation Zrotation
                            End Site
                            {
                                OFFSET 0.000000 15.950000 0.000000
                            }
                        }
                    }
                }
                JOINT RightShoulder
                {
                    OFFSET -2.792000 12.843000 0.000000
                    CHANNELS 3 Yrotation Xrotation Zrotation
                    JOINT RightArm
                    {
                        OFFSET -13.208000 0.000000 0.000000
                        CHANNELS 3 Yrotation Xrotation Zrotation
                        JOINT RightForeArm
                        {
                            OFFSET -26.500000 0.000000 0.000000
                            CHANNELS 3 Yrotation Xrotation Zrotation
                            JOINT RightHand
                            {
                                OFFSET -26.000000 0.000000 0.000000
                                CHANNELS 3 Yrotation Xrotation Zrotation
                                JOINT RightHandThumb1
                                {
                                    OFFSET -1.842000 -0.461000 2.395000
                                    CHANNELS 3 Yrotation Xrotation Zrotation
                                    JOINT RightHandThumb2
                                    {
                                        OFFSET -3.682000 0.000000 0.000000
                                        CHANNELS 3 Yrotation Xrotation Zrotation
                                        JOINT RightHandThumb3
                                        {
                                            OFFSET -2.559000 0.000000 0.000000
                                            CHANNELS 3 Yrotation Xrotation Zrotation
                                            End Site
                                            {
                                                OFFSET -2.413000 0.000000 0.000000
                                            }
                                        }
                                    }
                                }
                                JOINT RightInHandIndex
                                {
                                    OFFSET -3.224000 0.508000 1.978000
                                    CHANNELS 3 Yrotation Xrotation Zrotation
                                    JOINT RightHandIndex1
                                    {
                                        OFFSET -5.217000 -0.091000 0.999000
                                        CHANNELS 3 Yrotation Xrotation Zrotation
                                        JOINT RightHandIndex2
                                        {
                                            OFFSET -3.620000 0.000000 0.000000
                                            CHANNELS 3 Yrotation Xrotation Zrotation
                                            JOINT RightHandIndex3
                                            {
                                                OFFSET -2.052000 0.000000 0.000000
                                                CHANNELS 3 Yrotation Xrotation Zrotation
                                                End Site
                                                {
                                                    OFFSET -1.805000 0.000000 0.000000
                                                }
                                            }
                                        }
                                    }
                                }
                                JOINT RightInHandMiddle
                                {
                                    OFFSET -3.382000 0.518000 0.757000
                                    CHANNELS 3 Yrotation Xrotation Zrotation
                                    JOINT RightHandMiddle1
                                    {
                                        OFFSET -5.174000 -0.084000 0.314000
                                        CHANNELS 3 Yrotation Xrotation Zrotation
                                        JOINT RightHandMiddle2
                                        {
                                            OFFSET -3.949000 0.000000 0.000000
                                            CHANNELS 3 Yrotation Xrotation Zrotation
                                            JOINT RightHandMiddle3
                                            {
                                                OFFSET -2.476000 0.000000 0.000000
                                                CHANNELS 3 Yrotation Xrotation Zrotation
                                                End Site
                                                {
                                                    OFFSET -1.975000 0.000000 0.000000
                                                }
                                            }
                                        }
                                    }
                                }
                                JOINT RightInHandRing
                                {
                                    OFFSET -3.366000 0.538000 -0.129000
                                    CHANNELS 3 Yrotation Xrotation Zrotation
                                    JOINT RightHandRing1
                                    {
                                        OFFSET -4.635000 -0.022000 -0.479000
                                        CHANNELS 3 Yrotation Xrotation Zrotation
                                        JOINT RightHandRing2
                                        {
                                            OFFSET -3.442000 0.000000 0.000000
                                            CHANNELS 3 Yrotation Xrotation Zrotation
                                            JOINT RightHandRing3
                                            {
                                                OFFSET -2.388000 0.000000 0.000000
                                                CHANNELS 3 Yrotation Xrotation Zrotation
                                                End Site
                                                {
                                                    OFFSET -1.857000 0.000000 0.000000
                                                }
                                            }
                                        }
                                    }
                                }
                                JOINT RightInHandPinky
                                {
                                    OFFSET -3.161000 0.470000 -1.202000
                                    CHANNELS 3 Yrotation Xrotation Zrotation
                                    JOINT RightHandPinky1
                                    {
                                        OFFSET -4.141000 -0.022000 -1.091000
                                        CHANNELS 3 Yrotation Xrotation Zrotation
                                        JOINT RightHandPinky2
                                        {
                                            OFFSET -2.757000 0.000000 0.000000
                                            CHANNELS 3 Yrotation Xrotation Zrotation
                                            JOINT RightHandPinky3
                                            {
                                                OFFSET -1.742000 0.000000 0.000000
                                                CHANNELS 3 Yrotation Xrotation Zrotation
                                                End Site
                                                {
                                                    OFFSET -1.645000 0.000000 0.000000
                                                }
                                            }
                                        }
                                    }
                                }
                            }
                        }
                    }
                }
                JOINT LeftShoulder
                {
                    OFFSET 2.792000 12.843000 0.000000
                    CHANNELS 3 Yrotation Xrotation Zrotation
                    JOINT LeftArm
                    {
                        OFFSET 13.208000 0.000000 0.000000
                        CHANNELS 3 Yrotation Xrotation Zrotation
                        JOINT LeftForeArm
                        {
                            OFFSET 26.500000 0.000000 0.000000
                            CHANNELS 3 Yrotation Xrotation Zrotation
                            JOINT LeftHand
                            {
                                OFFSET 26.000000 0.000000 0.000000
                                CHANNELS 3 Yrotation Xrotation Zrotation
                                JOINT LeftHandThumb1
                                {
                                    OFFSET 1.842000 -0.461000 2.395000
                                    CHANNELS 3 Yrotation Xrotation Zrotation
                                    JOINT LeftHandThumb2
                                    {
                                        OFFSET 3.682000 0.000000 0.000000
                                        CHANNELS 3 Yrotation Xrotation Zrotation
                                        JOINT LeftHandThumb3
                                        {
                                            OFFSET 2.559000 0.000000 0.000000
                                            CHANNELS 3 Yrotation Xrotation Zrotation
                                            End Site
                                            {
                                                OFFSET 2.413000 0.000000 0.000000
                                            }
                                        }
                                    }
                                }
                                JOINT LeftInHandIndex
                                {
                                    OFFSET 3.224000 0.508000 1.978000
                                    CHANNELS 3 Yrotation Xrotation Zrotation
                                    JOINT LeftHandIndex1
                                    {
                                        OFFSET 5.217000 -0.091000 0.999000
                                        CHANNELS 3 Yrotation Xrotation Zrotation
                                        JOINT LeftHandIndex2
                                        {
                                            OFFSET 3.620000 0.000000 0.000000
                                            CHANNELS 3 Yrotation Xrotation Zrotation
                                            JOINT LeftHandIndex3
                                            {
                                                OFFSET 2.052000 0.000000 0.000000
                                                CHANNELS 3 Yrotation Xrotation Zrotation
                                                End Site
                                                {
                                                    OFFSET 1.805000 0.000000 0.000000
                                                }
                                            }
                                        }
                                    }
                                }
                                JOINT LeftInHandMiddle
                                {
                                    OFFSET 3.382000 0.518000 0.757000
                                    CHANNELS 3 Yrotation Xrotation Zrotation
                                    JOINT LeftHandMiddle1
                                    {
                                        OFFSET 5.174000 -0.084000 0.314000
                                        CHANNELS 3 Yrotation Xrotation Zrotation
                                        JOINT LeftHandMiddle2
                                        {
                                            OFFSET 3.949000 0.000000 0.000000
                                            CHANNELS 3 Yrotation Xrotation Zrotation
                                            JOINT LeftHandMiddle3
                                            {
                                                OFFSET 2.476000 0.000000 0.000000
                                                CHANNELS 3 Yrotation Xrotation Zrotation
                                                End Site
                                                {
                                                    OFFSET 1.975000 0.000000 0.000000
                                                }
                                            }
                                        }
                                    }
                                }
                                JOINT LeftInHandRing
                                {
                                    OFFSET 3.366000 0.538000 -0.129000
                                    CHANNELS 3 Yrotation Xrotation Zrotation
                                    JOINT LeftHandRing1
                                    {
                                        OFFSET 4.635000 -0.022000 -0.479000
                                        CHANNELS 3 Yrotation Xrotation Zrotation
                                        JOINT LeftHandRing2
                                        {
                                            OFFSET 3.442000 0.000000 0.000000
                                            CHANNELS 3 Yrotation Xrotation Zrotation
                                            JOINT LeftHandRing3
                                            {
                                                OFFSET 2.388000 0.000000 0.000000
                                                CHANNELS 3 Yrotation Xrotation Zrotation
                                                End Site
                                                {
                                                    OFFSET 1.857000 0.000000 0.000000
                                                }
                                            }
                                        }
                                    }
                                }
                                JOINT LeftInHandPinky
                                {
                                    OFFSET 3.161000 0.470000 -1.202000
                                    CHANNELS 3 Yrotation Xrotation Zrotation
                                    JOINT LeftHandPinky1
                                    {
                                        OFFSET 4.141000 -0.022000 -1.091000
                                        CHANNELS 3 Yrotation Xrotation Zrotation
                                        JOINT LeftHandPinky2
                                        {
                                            OFFSET 2.757000 0.000000 0.000000
                                            CHANNELS 3 Yrotation Xrotation Zrotation
                                            JOINT LeftHandPinky3
                                            {
                                                OFFSET 1.742000 0.000000 0.000000
                                                CHANNELS 3 Yrotation Xrotation Zrotation
                                                End Site
                                                {
                                                    OFFSET 1.645000 0.000000 0.000000
                                                }
                                            }
                                        }
                                    }
                                }
                            }
                        }
                    }
                }
            }
        }
    }
}
MOTION
Frames: 4
Frame Time: 0.016667
1.683385 90.130585 138.934738 90.798454 177.719940 -174.725189 175.292511 -164.023743 -171.607056 57.375755 23.966434 3.860190 164.464325 -175.430588 -179.366913 33.012230 -47.920593 11.956729 151.799133 58.442131 109.945511 152.253433 173.828766 -154.359146 3.929565 0.311377 -1.470677 3.927100 0.377671 -2.460520 18.332394 1.711380 -2.742621 178.041565 173.260391 -178.707840 178.471786 172.151169 -178.632431 133.787094 175.694656 176.053864 141.822800 178.402908 -174.453644 6.907525 11.397304 82.377350 1.919091 16.361637 -1.098389 8.017480 8.280762 -3.134101 43.477409 -0.000024 12.839273 176.995316 179.999985 -160.741119 0.755723 0.000000 -0.000003 180.000000 -180.000000 180.000000 15.000049 -0.000005 22.983458 180.000000 -179.999985 -161.195358 0.000001 0.000007 13.163306 180.000000 -180.000000 -180.000000 0.000010 0.000003 28.287096 0.000001 -0.000009 34.104549 180.000000 -180.000000 -157.286423 180.000000 -180.000000 180.000000 170.000015 -179.999985 -152.110260 179.999985 180.000000 -148.689804 0.000008 0.000006 20.852537 180.000000 -180.000000 180.000000 160.000061 -179.999985 -155.133041 180.000000 179.999985 -142.699570 180.000000 -179.999985 -155.157928 172.665070 174.318726 175.589157 116.337822 -148.435043 120.307938 102.419044 168.409790 164.642502 148.900238 132.093964 -157.216522 136.522598 -179.999985 167.160721 3.004681 0.000008 -19.258894 0.755723 0.000000 -0.000003 0.000005 -0.000002 0.000002 164.999954 -179.999985 157.016541 0.000002 -0.000003 -18.804642 180.000000 179.999985 166.836685 0.000005 -0.000002 0.000002 179.999985 179.999985 151.712906 180.000000 -179.999985 145.895447 0.000000 -0.000002 -22.713579 0.000005 -0.000002 0.000002 9.999979 -0.000006 -27.889727 0.000007 0.000000 -31.310192 179.999985 179.999985 159.147461 0.000005 -0.000002 0.000002 19.999945 -0.000026 -24.866964 0.000004 0.000009 -37.300442 0.000001 -0.000004 -24.842075
2.456603 90.096603 139.748474 94.300194 177.745483 -175.586121 175.397385 -164.502029 -171.280884 60.167984 23.709719 3.421434 164.022873 -176.996658 -178.526337 33.946995 -48.060535 11.383420 145.825378 60.335281 105.446907 152.164413 175.777328 -154.552338 3.883709 0.304129 -1.425038 3.881394 0.367907 -2.383768 18.120537 1.642743 -2.664869 177.779144 173.536057 -178.885254 178.267899 172.472076 -178.813080 133.810806 175.969437 176.109131 142.483490 178.573929 -174.115021 7.100369 11.872747 82.590698 1.471191 16.808630 -1.517220 7.724968 9.673316 -2.384063 43.477409 -0.000024 12.839273 176.995316 179.999985 -160.741119 0.755723 0.000000 -0.000003 180.000000 -180.000000 180.000000 15.000049 -0.000005 22.983458 180.000000 -179.999985 -161.195358 0.000001 0.000007 13.163306 180.000000 -180.000000 -180.000000 0.000010 0.000003 28.287096 0.000001 -0.000009 34.104549 180.000000 -180.000000 -157.286423 180.000000 -180.000000 180.000000 170.000015 -179.999985 -152.110260 179.999985 180.000000 -148.689804 0.000008 0.000006 20.852537 180.000000 -180.000000 180.000000 160.000061 -179.999985 -155.133041 180.000000 179.999985 -142.699570 180.000000 -179.999985 -155.157928 172.805008 174.252457 175.599213 115.586433 -148.262268 120.522636 102.471512 168.124802 164.829224 148.314880 132.756317 -157.323303 136.522598 -179.999985 167.160721 3.004681 0.000008 -19.258894 0.755723 0.000000 -0.000003 0.000005 -0.000002 0.000002 164.999954 -179.999985 157.016541 0.000002 -0.000003 -18.804642 180.000000 179.999985 166.836685 0.000005 -0.000002 0.000002 179.999985 179.999985 151.712906 180.000000 -179.999985 145.895447 0.000000 -0.000002 -22.713579 0.000005 -0.000002 0.000002 9.999979 -0.000006 -27.889727 0.000007 0.000000 -31.310192 179.999985 179.999985 159.147461 0.000005 -0.000002 0.000002 19.999945 -0.000026 -24.866964 0.000004 0.000009 -37.300442 0.000001 -0.000004 -24.842075
3.360510 90.019882 140.604202 98.183739 177.687271 -176.511124 174.831329 -164.328705 -170.973831 60.550816 23.910650 3.085653 162.798492 -177.832428 -178.661713 33.658623 -48.097931 11.235752 138.806458 61.940231 99.135338 152.196030 177.483185 -155.213287 3.775373 0.376877 -1.394220 3.773396 0.433470 -2.333769 17.623331 1.618663 -2.609893 177.751709 173.958862 -179.139069 178.249298 172.962540 -179.076675 133.948730 176.317932 176.283768 142.694229 178.864243 -173.539062 8.370380 12.317252 82.717522 1.117476 16.242556 -1.635837 7.450953 10.985599 -1.650247 43.477409 -0.000024 12.839273 176.995316 179.999985 -160.741119 0.755723 0.000000 -0.000003 180.000000 -180.000000 180.000000 15.000049 -0.000005 22.983458 180.000000 -179.999985 -161.195358 0.000001 0.000007 13.163306 180.000000 -180.000000 -180.000000 0.000010 0.000003 28.287096 0.000001 -0.000009 34.104549 180.000000 -180.000000 -157.286423 180.000000 -180.000000 180.000000 170.000015 -179.999985 -152.110260 179.999985 180.000000 -148.689804 0.000008 0.000006 20.852537 180.000000 -180.000000 180.000000 160.000061 -179.999985 -155.133041 180.000000 179.999985 -142.699570 180.000000 -179.999985 -155.157928 172.797836 174.356644 175.766174 115.239662 -147.956223 120.707352 102.415314 167.923431 164.519287 148.372330 133.003204 -156.827179 136.522598 -179.999985 167.160721 3.004681 0.000008 -19.258894 0.755723 0.000000 -0.000003 0.000005 -0.000002 0.000002 164.999954 -179.999985 157.016541 0.000002 -0.000003 -18.804642 180.000000 179.999985 166.836685 0.000005 -0.000002 0.000002 179.999985 179.999985 151.712906 180.000000 -179.999985 145.895447 0.000000 -0.000002 -22.713579 0.000005 -0.000002 0.000002 9.999979 -0.000006 -27.889727 0.000007 0.000000 -31.310192 179.999985 179.999985 159.147461 0.000005 -0.000002 0.000002 19.999945 -0.000026 -24.866964 0.000004 0.000009 -37.300442 0.000001 -0.000004 -24.842075
4.428718 89.705688 141.485123 101.528038 177.539612 -177.324249 173.556702 -163.641495 -170.604263 59.529503 24.739813 2.661443 162.473022 -177.991989 -179.444458 33.136536 -47.632759 11.636112 130.367447 63.063213 90.183746 152.166122 179.217804 -156.223679 3.809839 0.478614 -1.437346 3.808155 0.533347 -2.407828 17.794895 1.736907 -2.657767 177.478500 174.443497 -179.232666 178.037750 173.529419 -179.171936 133.963074 176.663010 176.529846 142.316315 179.145462 -172.793106 9.417188 12.560752 82.935707 0.782516 16.094973 -1.883366 7.090688 12.224599 -1.012442 43.477409 -0.000024 12.839273 176.995316 179.999985 -160.741119 0.755723 0.000000 -0.000003 180.000000 -180.000000 180.000000 15.000049 -0.000005 22.983458 180.000000 -179.999985 -161.195358 0.000001 0.000007 13.163306 180.000000 -180.000000 -180.000000 0.000010 0.000003 28.287096 0.000001 -0.000009 34.104549 180.000000 -180.000000 -157.286423 180.000000 -180.000000 180.000000 170.000015 -179.999985 -152.110260 179.999985 180.000000 -148.689804 0.000008 0.000006 20.852537 180.000000 -180.000000 180.000000 160.000061 -179.999985 -155.133041 180.000000 179.999985 -142.699570 180.000000 -179.999985 -155.157928 172.611572 174.527176 176.090561 115.170052 -147.523132 120.866043 102.306671 167.766937 163.827133 147.880676 133.432205 -156.915161 136.522598 -179.999985 167.160721 3.004681 0.000008 -19.258894 0.755723 0.000000 -0.000003 0.000005 -0.000002 0.000002 164.999954 -179.999985 157.016541 0.000002 -0.000003 -18.804642 180.000000 179.999985 166.836685 0.000005 -0.000002 0.000002 179.999985 179.999985 151.712906 180.000000 -179.999985 145.895447 0.000000 -0.000002 -22.713579 0.000005 -0.000002 0.000002 9.999979 -0.000006 -27.889727 0.000007 0.000000 -31.310192 179.999985 179.999985 159.147461 0.000005 -0.000002 0.000002 19.999945 -0.000026 -24.866964 0.000004 0.000009 -37.300442 0.000001 -0.000004 -24.842075
